#!OML:ASF H:\Pregnant\Project 1\Capture day 1\Session 1\femalepreg.ASF
:FULLY-SPECIFIED
:DEGREES
3071
root 10.1985 13.181 28.2279 617.972 -43.7211 -579.724
lowerback 2.71403 9.41627 23.7415
upperback -3.91826 12.4865 8.15849
thorax -2.71533 4.89128 -4.0527
lowerneck -22.8035 10.4205 12.6119
upperneck 25.3708 16.2253 -18.1839
head 15.5693 5.89876 -6.26549
rclavicle 3.49861e-014 -8.26944e-014
rhumerus -30.5936 -54.245 -8.00485
rradius 28.2798
rwrist 21.7202
rhand -30.6701 -21.568
rfingers 7.12502
rthumb -3.96453 -51.5109
lclavicle 3.49861e-014 -8.26944e-014
lhumerus -38.0036 35.246 -34.1933
lradius 30.3961
lwrist 38.3133
lhand -49.4113 23.5313
lfingers 7.12502
lthumb -22.024 52.2973
rfemur -340.794 -178.922 284.094
rtibia 38.8645
rfoot -340.654 -297.123
rtoes 29.4616
lfemur -26.018 16.7564 322.876
ltibia 3.97569e-014
lfoot -15.1 -5.08224
ltoes -36.0808
3072
root 10.1982 13.1885 28.232 617.798 -43.9135 -579.608
lowerback 2.45965 9.39548 23.56
upperback -4.0253 12.4064 8.07998
thorax -2.72695 4.8573 -4.02767
lowerneck -22.6606 10.4339 12.5392
upperneck 25.2521 16.2658 -18.1947
head 15.4854 5.91694 -6.24212
rclavicle -3.02153e-014 -1.59028e-014
rhumerus -31.1022 -54.1098 -8.34293
rradius 28.4547
rwrist 21.6828
rhand -31.0189 -21.9239
rfingers 7.12502
rthumb -4.30143 -51.8602
lclavicle -3.02153e-014 -1.59028e-014
lhumerus -37.8909 35.3698 -34.1549
lradius 30.4146
lwrist 38.1037
lhand -49.4304 23.547
lfingers 7.12502
lthumb -22.0423 52.3108
rfemur -340.688 -178.895 284.416
rtibia 38.7951
rfoot -340.727 -297.001
rtoes 29.4656
lfemur -25.9448 16.8269 323.096
ltibia 2.22639e-014
lfoot -15.105 -5.09846
ltoes -36.0488
3073
root 10.1978 13.1963 28.2353 617.599 -44.1036 -579.477
lowerback 2.21614 9.37214 23.3839
upperback -4.12651 12.3275 7.98902
thorax -2.73382 4.82525 -4.01943
lowerneck -22.5193 10.4516 12.483
upperneck 25.125 16.3002 -18.193
head 15.3968 5.93648 -6.21693
rclavicle 6.36111e-014 2.19458e-013
rhumerus -31.6583 -54.0272 -8.65667
rradius 28.6134
rwrist 21.731
rhand -31.3873 -22.1595
rfingers 7.12502
rthumb -4.65712 -52.0883
lclavicle 6.36111e-014 2.19458e-013
lhumerus -37.7598 35.5079 -34.133
lradius 30.4274
lwrist 37.933
lhand -49.4973 23.4703
lfingers 7.12502
lthumb -22.1066 52.2266
rfemur -340.571 -178.756 284.663
rtibia 38.7391
rfoot -340.881 -296.969
rtoes 29.3882
lfemur -25.855 16.9123 323.323
ltibia -3.33958e-014
lfoot -15.1014 -5.11584
ltoes -36.0447
3074
root 10.1973 13.2044 28.2382 617.376 -44.2872 -579.336
lowerback 1.98701 9.34688 23.212
upperback -4.22446 12.2528 7.88065
thorax -2.73944 4.7962 -4.0333
lowerneck -22.3745 10.4759 12.4828
upperneck 24.9987 16.3336 -18.2195
head 15.3179 5.95821 -6.21479
rclavicle 1.03368e-013 4.77083e-014
rhumerus -32.2713 -53.9876 -8.93695
rradius 28.7478
rwrist 21.8614
rhand -31.7773 -22.2856
rfingers 7.12502
rthumb -5.03366 -52.2059
lclavicle 1.03368e-013 4.77083e-014
lhumerus -37.6026 35.6624 -34.1229
lradius 30.445
lwrist 37.7847
lhand -49.5537 23.5187
lfingers 7.12502
lthumb -22.1607 52.2686
rfemur -340.444 -178.513 284.835
rtibia 38.6964
rfoot -341.115 -297.019
rtoes 29.2322
lfemur -25.7478 17.0112 323.553
ltibia 8.11041e-014
lfoot -15.0858 -5.12692
ltoes -36.0536
3075
root 10.1964 13.2128 28.2403 617.134 -44.4688 -579.183
lowerback 1.77476 9.32199 23.0222
upperback -4.33377 12.1857 7.77788
thorax -2.76988 4.76804 -4.03627
lowerneck -22.2201 10.4959 12.4651
upperneck 24.8747 16.3612 -18.2262
head 15.2322 5.97874 -6.2026
rclavicle 3.81667e-014 -9.85972e-014
rhumerus -32.9126 -53.9413 -9.1806
rradius 28.8562
rwrist 22.0485
rhand -32.1738 -22.345
rfingers 7.12502
rthumb -5.41655 -52.2558
lclavicle 3.81667e-014 -9.85972e-014
lhumerus -37.4272 35.8597 -34.1152
lradius 30.4566
lwrist 37.5784
lhand -49.6013 23.5558
lfingers 7.12502
lthumb -22.2064 52.3002
rfemur -340.307 -178.178 284.945
rtibia 38.6642
rfoot -341.404 -297.145
rtoes 29.0089
lfemur -25.6271 17.1209 323.789
ltibia 2.06736e-014
lfoot -15.0647 -5.13448
ltoes -36.0867
3076
root 10.1953 13.2215 28.242 616.876 -44.6476 -579.018
lowerback 1.565 9.29784 22.8139
upperback -4.4486 12.1211 7.67916
thorax -2.8111 4.74032 -4.0271
lowerneck -22.0522 10.5139 12.4452
upperneck 24.7457 16.3836 -18.2243
head 15.1391 5.99899 -6.18764
rclavicle -3.65764e-014 -6.67916e-014
rhumerus -33.5641 -53.8833 -9.41105
rradius 28.9532
rwrist 22.2499
rhand -32.546 -22.3763
rfingers 7.12502
rthumb -5.77587 -52.2776
lclavicle -3.65764e-014 -6.67916e-014
lhumerus -37.2283 36.0514 -34.1013
lradius 30.4636
lwrist 37.3648
lhand -49.6132 23.7123
lfingers 7.12502
lthumb -22.2178 52.4553
rfemur -340.16 -177.812 285.035
rtibia 38.6357
rfoot -341.717 -297.291
rtoes 28.7628
lfemur -25.4983 17.2404 324.027
ltibia -1.74931e-014
lfoot -15.038 -5.14253
ltoes -36.1269
3077
root 10.1938 13.2305 28.2432 616.607 -44.8259 -578.84
lowerback 1.34572 9.27657 22.588
upperback -4.56635 12.0576 7.58454
thorax -2.85341 4.71333 -4.00381
lowerneck -21.8785 10.5319 12.4611
upperneck 24.6084 16.4086 -18.2733
head 15.0531 6.01807 -6.20083
rclavicle 5.24792e-014 0
rhumerus -34.2012 -53.8111 -9.64161
rradius 29.0335
rwrist 22.425
rhand -32.8651 -22.3936
rfingers 7.12502
rthumb -6.08396 -52.2862
lclavicle 5.24792e-014 0
lhumerus -37.0017 36.2197 -34.0788
lradius 30.4614
lwrist 37.168
lhand -49.5946 23.9047
lfingers 7.12502
lthumb -22.2 52.6499
rfemur -340.004 -177.463 285.142
rtibia 38.6048
rfoot -342.025 -297.416
rtoes 28.5256
lfemur -25.3678 17.3682 324.269
ltibia 7.95139e-015
lfoot -15.007 -5.14984
ltoes -36.1729
3078
root 10.1919 13.2397 28.2441 616.327 -45.0038 -578.644
lowerback 1.11329 9.25699 22.3428
upperback -4.68733 11.9924 7.49583
thorax -2.89629 4.68584 -3.96333
lowerneck -21.6912 10.5529 12.5411
upperneck 24.4613 16.4428 -18.4087
head 14.9815 6.03759 -6.2613
rclavicle -7.4743e-014 -1.43125e-013
rhumerus -34.8035 -53.721 -9.88814
rradius 29.0925
rwrist 22.5497
rhand -33.1278 -22.3782
rfingers 7.12502
rthumb -6.33755 -52.2634
lclavicle -7.4743e-014 -1.43125e-013
lhumerus -36.7697 36.4159 -34.079
lradius 30.4586
lwrist 36.9317
lhand -49.5456 24.1444
lfingers 7.12502
lthumb -22.1529 52.8952
rfemur -339.838 -177.197 285.321
rtibia 38.5656
rfoot -342.288 -297.458
rtoes 28.3483
lfemur -25.2389 17.5064 324.514
ltibia -3.18055e-015
lfoot -14.9717 -5.15753
ltoes -36.2197
3079
root 10.1898 13.2489 28.2446 616.036 -45.1805 -578.43
lowerback 0.869479 9.24116 22.0832
upperback -4.81143 11.929 7.41015
thorax -2.93832 4.6595 -3.91084
lowerneck -21.492 10.5719 12.6707
upperneck 24.3098 16.4814 -18.6208
head 14.9233 6.05498 -6.36368
rclavicle -8.74653e-014 -1.33583e-013
rhumerus -35.3811 -53.6313 -10.1301
rradius 29.115
rwrist 22.6432
rhand -33.3457 -22.3004
rfingers 7.12502
rthumb -6.54791 -52.1792
lclavicle -8.74653e-014 -1.33583e-013
lhumerus -36.5201 36.5937 -34.0789
lradius 30.4628
lwrist 36.7182
lhand -49.4941 24.3203
lfingers 7.12502
lthumb -22.1034 53.077
rfemur -339.668 -177.072 285.616
rtibia 38.5167
rfoot -342.49 -297.363
rtoes 28.2792
lfemur -25.1122 17.6552 324.762
ltibia -2.38542e-014
lfoot -14.935 -5.16572
ltoes -36.2612
3080
root 10.1875 13.2581 28.2449 615.735 -45.3536 -578.199
lowerback 0.615171 9.22677 21.8069
upperback -4.93882 11.8651 7.32684
thorax -2.98089 4.63329 -3.84638
lowerneck -21.2833 10.5903 12.8335
upperneck 24.1683 16.5238 -18.8769
head 14.8787 6.07206 -6.49157
rclavicle -3.18055e-015 1.55847e-013
rhumerus -35.932 -53.5382 -10.3759
rradius 29.108
rwrist 22.7
rhand -33.5083 -22.1703
rfingers 7.12502
rthumb -6.70488 -52.0441
lclavicle -3.18055e-015 1.55847e-013
lhumerus -36.2653 36.776 -34.0946
lradius 30.4817
lwrist 36.5107
lhand -49.4212 24.5314
lfingers 7.12502
lthumb -22.0335 53.2963
rfemur -339.49 -177.027 285.977
rtibia 38.458
rfoot -342.647 -297.187
rtoes 28.2803
lfemur -24.9869 17.8142 325.011
ltibia 6.04305e-014
lfoot -14.8981 -5.17065
ltoes -36.301
3081
root 10.185 13.2672 28.2447 615.419 -45.522 -577.952
lowerback 0.356137 9.21304 21.5152
upperback -5.06512 11.8011 7.24634
thorax -3.02212 4.6079 -3.7706
lowerneck -21.0861 10.6047 12.9795
upperneck 24.0422 16.5645 -19.1241
head 14.8406 6.08669 -6.614
rclavicle 1.60618e-013 1.87653e-013
rhumerus -36.4536 -53.4455 -10.6245
rradius 29.0687
rwrist 22.7256
rhand -33.62 -21.9901
rfingers 7.12502
rthumb -6.81279 -51.8604
lclavicle 1.60618e-013 1.87653e-013
lhumerus -35.9902 36.8933 -34.0981
lradius 30.507
lwrist 36.3966
lhand -49.3611 24.6676
lfingers 7.12502
lthumb -21.9758 53.4392
rfemur -339.302 -177.021 286.374
rtibia 38.3932
rfoot -342.773 -296.967
rtoes 28.3187
lfemur -24.8567 17.9848 325.261
ltibia 4.77083e-014
lfoot -14.8609 -5.17043
ltoes -36.3281
